<svg width="480" height="146" viewBox="0 0 480 146" fill="none" xmlns="http://www.w3.org/2000/svg">
<path d="M41.9257 4H61.6053L45.2336 146H25.554L41.9257 4Z" fill="white"/>
<path d="M70.801 4H90.4807L77.7248 115.26H58.0405L70.801 4Z" fill="white"/>
<path d="M12.7605 4H32.4402L19.6843 115.26H0L12.7605 4Z" fill="white"/>
<path d="M134.33 108.534C158.16 108.534 172.989 92.2216 172.989 68.0341C172.989 43.6932 158.16 27.4318 134.33 27.4318C110.5 27.4318 95.6709 43.6932 95.6709 68.0341C95.6709 92.2216 110.5 108.534 134.33 108.534ZM134.432 91.6591C123.438 91.6591 117.813 81.5852 117.813 67.8807C117.813 54.1761 123.438 44.0511 134.432 44.0511C145.222 44.0511 150.847 54.1761 150.847 67.8807C150.847 81.5852 145.222 91.6591 134.432 91.6591ZM222.643 108.534C246.472 108.534 261.302 92.2216 261.302 68.0341C261.302 43.6932 246.472 27.4318 222.643 27.4318C198.813 27.4318 183.983 43.6932 183.983 68.0341C183.983 92.2216 198.813 108.534 222.643 108.534ZM222.745 91.6591C211.75 91.6591 206.125 81.5852 206.125 67.8807C206.125 54.1761 211.75 44.0511 222.745 44.0511C233.535 44.0511 239.16 54.1761 239.16 67.8807C239.16 81.5852 233.535 91.6591 222.745 91.6591ZM346.022 28.4545H322.959L306.698 84.6534H305.88L289.567 28.4545H266.556L294.016 107H318.562L346.022 28.4545ZM390.293 108.534C409.725 108.534 422.816 99.0739 425.884 84.5L405.736 83.1705C403.537 89.1534 397.912 92.2727 390.651 92.2727C379.759 92.2727 372.856 85.0625 372.856 73.3523V73.3011H426.344V67.3182C426.344 40.625 410.185 27.4318 389.424 27.4318C366.31 27.4318 351.327 43.8466 351.327 68.0852C351.327 92.9886 366.106 108.534 390.293 108.534ZM372.856 59.8011C373.316 50.8523 380.117 43.6932 389.782 43.6932C399.242 43.6932 405.787 50.4432 405.839 59.8011H372.856ZM466.589 2.27272H443.833L445.878 75.6023H464.594L466.589 2.27272ZM455.236 108.33C461.782 108.33 467.458 102.858 467.509 96.0568C467.458 89.358 461.782 83.8864 455.236 83.8864C448.486 83.8864 442.912 89.358 442.964 96.0568C442.912 102.858 448.486 108.33 455.236 108.33Z" fill="white"/>
</svg>
